<svg width="301" height="77" viewBox="0 0 301 77" fill="none" xmlns="http://www.w3.org/2000/svg">
<path d="M291.593 76.5H9.40546C4.40331 76.5 0.499207 73.2096 0.499207 69.4V8.6C0.499207 4.79045 4.40331 1.5 9.40546 1.5H291.593C296.595 1.5 300.499 4.79045 300.499 8.6V69.4C300.499 73.2096 296.595 76.5 291.593 76.5Z" fill="black" stroke="#3A3A3A"/>
<path fill-rule="evenodd" clip-rule="evenodd" d="M47.42 37.8374V17.8874C47.42 16.7474 48.37 15.7974 49.32 15.7974C50.27 15.7974 50.65 15.9874 51.22 16.3674L87.89 36.5074C88.65 36.8874 89.03 37.4574 89.03 38.0274C89.03 38.5974 88.65 39.1674 87.89 39.5474L51.22 59.6874C50.84 59.8774 50.27 60.2574 49.32 60.2574C48.37 60.2574 47.42 59.3074 47.42 58.1674V37.8374Z" fill="url(#paint0_linear_25_830)"/>
<path fill-rule="evenodd" clip-rule="evenodd" d="M71.17 38.0274L48.94 15.7974C49.13 15.7974 49.13 15.7974 49.32 15.7974C50.27 15.7974 50.65 15.9874 51.22 16.3674L78.2 31.1874L71.17 38.0274Z" fill="url(#paint1_linear_25_830)"/>
<path fill-rule="evenodd" clip-rule="evenodd" d="M78.01 44.6774L71.17 37.8374L78.2 30.8074L87.89 36.1274C88.65 36.5074 89.03 37.0774 89.03 37.6474C89.03 38.2174 88.65 38.7874 87.89 39.1674L78.01 44.6774Z" fill="url(#paint2_linear_25_830)"/>
<path fill-rule="evenodd" clip-rule="evenodd" d="M49.13 59.8774L71.17 37.8374L78.01 44.6774L51.22 59.3074C50.65 59.6874 50.27 59.8774 49.13 59.8774C49.32 59.8774 49.32 59.8774 49.13 59.8774Z" fill="url(#paint3_linear_25_830)"/>
<path fill-rule="evenodd" clip-rule="evenodd" d="M163.89 65.0074C162.94 64.2474 162.18 62.9174 161.8 62.1574L164.84 60.8274C165.03 61.2074 165.41 61.7774 165.79 62.3474C166.55 63.1074 167.69 63.8674 168.83 63.8674C169.97 63.8674 171.3 63.2974 172.06 62.3474C172.63 61.3974 173.01 60.4474 173.01 59.1174V57.9774C170.73 60.8274 165.98 60.4474 163.32 57.4074C160.47 54.3674 160.47 49.2374 163.32 46.1974C166.17 43.3474 170.35 42.9674 172.82 45.6274V44.2974H176.05V58.5474C176.05 62.1574 174.72 64.2474 173.01 65.5774C171.87 66.5274 170.16 66.9074 168.64 66.9074C166.93 66.7174 165.22 66.1474 163.89 65.0074ZM243.5 65.7674L246.73 58.1674L241.03 45.0574H244.26L248.25 54.3674L252.24 45.0574H255.47L246.73 65.7674H243.5ZM228.11 58.5474C227.16 57.5974 226.78 56.2674 226.78 54.9374C226.78 53.7974 227.16 52.6574 227.92 51.8974C229.25 50.5674 231.15 49.9974 233.24 49.9974C234.57 49.9974 235.71 50.1874 236.66 50.7574C236.66 48.4774 234.76 47.5274 233.24 47.5274C231.91 47.5274 230.58 48.2874 230.01 49.6174L227.16 48.4774C227.73 47.1474 229.25 44.6774 233.05 44.6774C234.95 44.6774 236.85 45.2474 237.99 46.5774C239.13 47.9074 239.51 49.4274 239.51 51.5174V59.4974H236.28V58.1674C235.9 58.7374 235.14 59.1174 234.57 59.4974C233.81 59.8774 232.86 60.0674 231.91 60.0674C230.77 59.8774 229.06 59.4974 228.11 58.5474ZM126.84 51.7074C126.84 47.9074 129.69 43.7274 134.82 43.7274C139.76 43.7274 142.8 47.9074 142.8 51.7074C142.8 55.5074 139.95 59.6874 134.82 59.6874C129.69 59.6874 126.84 55.5074 126.84 51.7074ZM143.94 51.7074C143.94 47.9074 146.79 43.7274 151.92 43.7274C156.86 43.7274 159.9 47.9074 159.9 51.7074C159.9 55.5074 157.05 59.6874 151.92 59.6874C146.98 59.6874 143.94 55.5074 143.94 51.7074ZM105.37 55.8874C100.62 51.1374 100.81 43.3474 105.56 38.4074C108.03 35.9374 111.07 34.7974 114.3 34.7974C117.34 34.7974 120.38 35.9374 122.66 38.2174L120.38 40.6874C116.96 37.2674 111.45 37.4574 108.22 40.8774C104.8 44.4874 104.8 49.9974 108.22 53.6074C111.64 57.2174 117.34 57.4074 120.76 53.7974C121.9 52.6574 122.28 51.1374 122.47 49.6174H114.49V46.1974H125.7C125.89 46.9574 125.89 47.9074 125.89 48.8574C125.89 51.7074 124.75 54.5574 122.85 56.4574C120.76 58.5474 117.72 59.6874 114.68 59.6874C111.26 59.4974 107.84 58.3574 105.37 55.8874ZM185.74 57.2174C182.89 54.1774 182.89 49.0474 185.74 45.8174C188.59 42.7774 193.34 42.7774 196 45.8174C196.95 46.7674 197.52 48.0974 198.09 49.4274L187.64 53.7974C188.21 55.1274 189.54 56.2674 191.44 56.2674C193.15 56.2674 194.29 55.6974 195.43 53.9874L198.28 55.8874C197.9 56.2674 197.52 56.6474 197.33 57.0274C194.1 60.2574 188.59 60.2574 185.74 57.2174ZM205.5 59.4974V38.4074H212.34C216.33 38.4074 219.56 41.2574 219.56 44.6774C219.56 48.0974 216.71 50.9474 213.1 50.9474H208.92V59.3074H205.5V59.4974ZM221.46 59.4974V38.4074H224.69V59.4974H221.46ZM178.52 59.1174V35.5574H181.94V59.1174H178.52ZM236.47 53.2274C235.71 52.6574 234.57 52.4674 233.43 52.4674C231.15 52.4674 229.82 53.6074 229.82 54.9374C229.82 56.2674 231.15 57.0274 232.48 57.0274C234.38 57.0274 236.47 55.5074 236.47 53.2274ZM139.19 51.7074C139.19 49.4274 137.67 46.9574 134.82 46.9574C131.97 46.9574 130.45 49.4274 130.45 51.7074C130.45 53.9874 131.97 56.4574 134.82 56.4574C137.48 56.4574 139.19 53.9874 139.19 51.7074ZM156.29 51.7074C156.29 49.4274 154.77 46.9574 151.92 46.9574C149.07 46.9574 147.55 49.4274 147.55 51.7074C147.55 53.9874 149.07 56.4574 151.92 56.4574C154.77 56.4574 156.29 53.9874 156.29 51.7074ZM173.2 53.0374C173.2 52.8474 173.2 52.6574 173.39 52.4674C173.39 52.2774 173.39 51.8974 173.39 51.7074C173.39 51.5174 173.39 51.1374 173.39 50.9474V50.7574C173.39 50.5674 173.2 50.1874 173.2 49.9974C172.63 48.0974 170.92 46.7674 169.21 46.7674C166.93 46.7674 165.03 49.0474 165.03 51.5174C165.03 54.1774 166.93 56.2674 169.4 56.2674C170.92 56.4574 172.44 55.1274 173.2 53.0374ZM187.07 51.3274L194.1 48.2874C193.34 46.9574 192.2 46.5774 191.25 46.5774C188.4 46.7674 186.69 49.8074 187.07 51.3274ZM216.14 44.8674C216.14 42.9674 214.62 41.6374 212.53 41.6374H208.73V48.2874H212.72C214.62 48.2874 216.14 46.7674 216.14 44.8674Z" fill="white"/>
<path fill-rule="evenodd" clip-rule="evenodd" d="M245.97 61.9673H245.78V61.7773H245.97H245.78V61.9673H245.97Z" fill="white"/>
<path fill-rule="evenodd" clip-rule="evenodd" d="M246.35 61.9673C246.35 61.7773 246.35 61.7773 246.35 61.9673C246.16 61.7773 246.16 61.7773 246.35 61.9673C246.16 61.9673 246.16 61.9673 246.35 61.9673ZM246.35 61.7773C246.35 61.9673 246.35 61.9673 246.35 61.7773C246.16 61.9673 246.35 61.9673 246.35 61.7773Z" fill="white"/>
<path fill-rule="evenodd" clip-rule="evenodd" d="M246.54 61.7773H246.35H246.54V61.9673V61.7773Z" fill="white"/>
<path d="M102.71 19.7873C102.71 16.3673 105.18 14.2773 108.22 14.2773C110.31 14.2773 111.64 15.2273 112.59 16.5573L111.07 17.5073C110.5 16.7473 109.55 16.1773 108.22 16.1773C106.13 16.1773 104.61 17.6973 104.61 19.9773C104.61 22.2573 106.13 23.7773 108.22 23.7773C109.36 23.7773 110.31 23.2073 110.69 22.8273V21.1173H107.65V19.4073H112.78V23.3973C111.83 24.5373 110.31 25.2973 108.41 25.2973C105.18 25.2973 102.71 23.0173 102.71 19.7873Z" fill="white"/>
<path d="M115.06 25.1073V14.4673H122.28V16.1773H116.77V18.8373H122.09V20.5473H116.77V23.5873H122.28V25.2973L115.06 25.1073Z" fill="white"/>
<path d="M127.6 25.1073V16.1773H124.37V14.4673H132.73V16.1773H129.5V25.1073H127.6Z" fill="white"/>
<path d="M139.19 25.1073V14.4673H141.09V25.1073H139.19Z" fill="white"/>
<path d="M146.22 25.1073V16.1773H142.99V14.4673H151.35V16.1773H148.12V25.1073H146.22Z" fill="white"/>
<path d="M157.43 19.7873C157.43 16.5573 159.71 14.2773 162.94 14.2773C166.17 14.2773 168.45 16.5573 168.45 19.7873C168.45 23.0173 166.17 25.2973 162.94 25.2973C159.71 25.2973 157.43 22.8273 157.43 19.7873ZM166.36 19.7873C166.36 17.5073 165.03 15.9873 162.75 15.9873C160.66 15.9873 159.14 17.6973 159.14 19.7873C159.14 22.0673 160.47 23.5873 162.75 23.5873C165.03 23.5873 166.36 21.8773 166.36 19.7873Z" fill="white"/>
<path d="M177.95 25.1073L172.44 17.5073V25.1073H170.54V14.4673H172.44L177.95 21.8773V14.4673H179.85V25.1073H177.95Z" fill="white"/>
<defs>
<linearGradient id="paint0_linear_25_830" x1="59.708" y1="13.0872" x2="70.3446" y2="56.7699" gradientUnits="userSpaceOnUse">
<stop stop-color="#006884"/>
<stop offset="1" stop-color="#8AD1D0"/>
</linearGradient>
<linearGradient id="paint1_linear_25_830" x1="46.7373" y1="19.3006" x2="75.7237" y2="34.9708" gradientUnits="userSpaceOnUse">
<stop stop-color="#24BBB6"/>
<stop offset="1" stop-color="#DBE692"/>
</linearGradient>
<linearGradient id="paint2_linear_25_830" x1="80.0893" y1="45.4756" x2="80.0893" y2="30.3736" gradientUnits="userSpaceOnUse">
<stop stop-color="#FCC072"/>
<stop offset="1" stop-color="#F58A5B"/>
</linearGradient>
<linearGradient id="paint3_linear_25_830" x1="52.3499" y1="63.8087" x2="75.2482" y2="40.5048" gradientUnits="userSpaceOnUse">
<stop stop-color="#712B8F"/>
<stop offset="1" stop-color="#EA1D27"/>
</linearGradient>
</defs>
</svg>
