<svg width="319" height="77" viewBox="0 0 319 77" fill="none" xmlns="http://www.w3.org/2000/svg">
<path d="M309.031 76.5H9.96875C7.32795 76.5 4.94435 75.6758 3.23146 74.3699C1.51848 73.0639 0.5 71.2996 0.5 69.4V8.6C0.5 6.70041 1.51848 4.93608 3.23146 3.63012C4.94435 2.32425 7.32795 1.5 9.96875 1.5H309.031C311.672 1.5 314.056 2.32425 315.769 3.63012C317.482 4.93607 318.5 6.70041 318.5 8.6V69.4C318.5 71.2996 317.482 73.0639 315.769 74.3699C314.056 75.6758 311.672 76.5 309.031 76.5Z" fill="black" stroke="#3A3A3A"/>
<path d="M89.3 38.2173C89.3 32.3273 94.24 29.4773 94.43 29.2873C91.58 25.2973 87.4 24.7273 85.88 24.5373C82.27 24.1573 78.66 26.6273 76.95 26.6273C75.05 26.6273 72.2 24.5373 69.16 24.5373C65.17 24.5373 61.56 26.8173 59.47 30.4273C55.29 37.6473 58.33 48.2873 62.32 54.1773C64.41 57.0273 66.69 60.2573 69.73 60.0673C72.77 59.8773 73.91 58.1673 77.52 58.1673C81.13 58.1673 82.08 60.0673 85.31 60.0673C88.54 60.0673 90.63 57.2173 92.53 54.3673C94.81 51.1373 95.76 47.9073 95.76 47.7173C95.57 47.5273 89.3 45.2473 89.3 38.2173Z" fill="white"/>
<path d="M83.41 20.7372C84.93 18.6472 86.07 15.9872 85.88 13.1372C83.6 13.3272 80.56 14.6572 79.04 16.7472C77.52 18.4572 76.19 21.3072 76.57 23.9672C79.04 24.1572 81.7 22.6372 83.41 20.7372Z" fill="white"/>
<path d="M132.62 59.6872H128.44L126.16 52.4672H118.18L116.09 59.6872H112.1L120.08 35.1772H125.02L132.62 59.6872ZM125.4 49.4272L123.31 42.9672C123.12 42.3972 122.74 40.6872 121.98 38.4072C121.79 39.3572 121.41 41.0672 120.84 42.9672L118.75 49.4272H125.4Z" fill="white"/>
<path d="M152.95 50.7574C152.95 53.7974 152.19 56.0774 150.48 57.9774C148.96 59.4974 147.25 60.2574 144.97 60.2574C142.69 60.2574 140.98 59.4974 140.03 57.7874V67.0974H136.04V48.0974C136.04 46.1974 136.04 44.2974 135.85 42.2074H139.27L139.46 45.0574C140.79 42.9674 142.69 41.8274 145.35 41.8274C147.44 41.8274 149.15 42.5874 150.48 44.2974C152.19 45.8174 152.95 47.9074 152.95 50.7574ZM148.96 50.7574C148.96 49.0474 148.58 47.5274 147.82 46.5774C147.06 45.4374 145.92 44.8674 144.4 44.8674C143.45 44.8674 142.5 45.2474 141.74 45.8174C140.98 46.3874 140.41 47.3374 140.22 48.2874C140.03 48.8574 140.03 49.2374 140.03 49.4274V52.4674C140.03 53.7974 140.41 54.7474 141.17 55.6974C141.93 56.6474 143.07 57.0274 144.21 57.0274C145.73 57.0274 146.87 56.4574 147.63 55.3174C148.58 54.1774 148.96 52.6574 148.96 50.7574Z" fill="white"/>
<path d="M173.28 50.7574C173.28 53.7974 172.52 56.0774 170.81 57.9774C169.29 59.4974 167.58 60.2574 165.3 60.2574C163.02 60.2574 161.31 59.4974 160.36 57.7874V67.0974H156.37V48.0974C156.37 46.1974 156.37 44.2974 156.18 42.2074H159.6L159.79 45.0574C161.12 42.9674 163.02 41.8274 165.68 41.8274C167.77 41.8274 169.48 42.5874 170.81 44.2974C172.52 45.8174 173.28 47.9074 173.28 50.7574ZM169.29 50.7574C169.29 49.0474 168.91 47.5274 168.15 46.5774C167.39 45.4374 166.25 44.8674 164.73 44.8674C163.78 44.8674 162.83 45.2474 162.07 45.8174C161.31 46.3874 160.74 47.3374 160.55 48.2874C160.36 48.8574 160.36 49.2374 160.36 49.4274V52.4674C160.36 53.7974 160.74 54.7474 161.5 55.6974C162.26 56.6474 163.4 57.0274 164.54 57.0274C166.06 57.0274 167.2 56.4574 167.96 55.3174C168.91 54.1774 169.29 52.6574 169.29 50.7574Z" fill="white"/>
<path d="M196.08 52.8473C196.08 54.9373 195.32 56.6473 193.99 57.9773C192.47 59.4973 190.19 60.0673 187.34 60.0673C184.68 60.0673 182.59 59.4973 181.07 58.5473L182.02 55.3173C183.73 56.2673 185.63 56.8373 187.72 56.8373C189.24 56.8373 190.38 56.4573 191.14 55.8873C191.9 55.1273 192.28 54.3673 192.28 53.2273C192.28 52.2773 191.9 51.3273 191.33 50.7573C190.57 49.9973 189.43 49.4273 187.91 48.8573C183.54 47.3373 181.45 44.8673 181.45 41.8273C181.45 39.7373 182.21 38.2173 183.73 36.8873C185.25 35.5573 187.15 34.9873 189.81 34.9873C192.09 34.9873 193.8 35.3673 195.32 36.1273L194.37 39.3573C193.04 38.5973 191.52 38.2173 189.62 38.2173C188.29 38.2173 187.15 38.5973 186.39 39.1673C185.82 39.7373 185.44 40.4973 185.44 41.4473C185.44 42.3973 185.82 43.1573 186.58 43.9173C187.15 44.4873 188.48 45.0573 190.19 45.8173C192.28 46.5773 193.8 47.7173 194.94 48.8573C195.51 49.8073 196.08 51.1373 196.08 52.8473Z" fill="white"/>
<path d="M209 45.0572H204.63V53.6072C204.63 55.6972 205.39 56.8372 206.91 56.8372C207.67 56.8372 208.24 56.8372 208.62 56.6472L208.81 59.6872C208.05 60.0672 207.1 60.0672 205.77 60.0672C204.25 60.0672 202.92 59.6872 202.16 58.7372C201.21 57.7872 200.83 56.2672 200.83 53.9872V45.0572H198.17V42.0172H200.83V38.7872L204.63 37.6472V42.0172H209V45.0572Z" fill="white"/>
<path d="M228.57 50.7572C228.57 53.4172 227.81 55.6972 226.29 57.4072C224.58 59.1172 222.49 60.0672 219.83 60.0672C217.17 60.0672 215.08 59.1172 213.56 57.4072C212.04 55.6972 211.28 53.6072 211.28 50.9472C211.28 48.2872 212.04 46.0072 213.75 44.2972C215.27 42.5872 217.55 41.6372 220.21 41.6372C222.87 41.6372 224.96 42.5872 226.48 44.2972C227.81 46.0072 228.57 48.0972 228.57 50.7572ZM224.39 50.9472C224.39 49.2372 224.01 47.9072 223.25 46.7672C222.49 45.4372 221.16 44.6772 219.64 44.6772C218.12 44.6772 216.79 45.4372 216.03 46.7672C215.27 47.9072 214.89 49.4272 214.89 50.9472C214.89 52.6572 215.27 53.9872 216.03 55.1272C216.79 56.4572 218.12 57.2172 219.64 57.2172C221.16 57.2172 222.3 56.4572 223.25 55.1272C224.01 53.9872 224.39 52.4672 224.39 50.9472Z" fill="white"/>
<path d="M241.3 45.4373C240.92 45.4373 240.54 45.2473 239.97 45.2473C238.64 45.2473 237.5 45.8173 236.74 46.7673C236.17 47.7173 235.79 48.8573 235.79 50.1873V59.4973H231.8V47.3373C231.8 45.2473 231.8 43.5373 231.61 41.8273H235.03L235.22 45.2473H235.41C235.79 44.1073 236.55 43.1573 237.31 42.3973C238.26 41.8273 239.21 41.4473 240.16 41.4473C240.54 41.4473 240.92 41.4473 241.11 41.4473V45.4373H241.3Z" fill="white"/>
<path d="M258.78 49.9972C258.78 50.7572 258.78 51.3272 258.59 51.7072H246.81C246.81 53.4172 247.38 54.7472 248.52 55.6972C249.47 56.4572 250.8 57.0272 252.32 57.0272C254.03 57.0272 255.74 56.8372 257.07 56.2672L257.64 58.9272C255.93 59.6872 254.03 60.0672 251.75 60.0672C249.09 60.0672 246.81 59.3072 245.29 57.5972C243.77 56.0772 243.01 53.7972 243.01 51.1372C243.01 48.4772 243.77 46.1972 245.1 44.4872C246.62 42.5872 248.71 41.6372 251.37 41.6372C253.84 41.6372 255.93 42.5872 257.07 44.4872C258.4 46.0072 258.78 47.9072 258.78 49.9972ZM255.17 49.0472C255.17 47.9072 254.98 46.9572 254.41 46.0072C253.65 44.8672 252.7 44.2972 251.37 44.2972C250.04 44.2972 249.09 44.8672 248.33 45.8172C247.76 46.5772 247.38 47.7172 247.19 48.8572H255.17V49.0472Z" fill="white"/>
<path d="M124.26 20.1673C124.26 22.2573 123.69 23.9673 122.36 25.1073C121.22 26.0573 119.51 26.6273 117.23 26.6273C116.09 26.6273 115.14 26.6273 114.38 26.4373V14.6573C115.33 14.4673 116.47 14.4673 117.8 14.4673C119.89 14.4673 121.41 14.8473 122.55 15.7973C123.5 16.7473 124.26 18.2673 124.26 20.1673ZM122.17 20.1673C122.17 18.8373 121.79 17.6973 121.03 16.9373C120.27 16.1773 119.13 15.7973 117.8 15.7973C117.23 15.7973 116.66 15.7973 116.28 15.9873V24.9173C116.47 24.9173 117.04 24.9173 117.61 24.9173C119.13 24.9173 120.27 24.5373 121.03 23.7773C121.79 23.0173 122.17 21.6873 122.17 20.1673Z" fill="white"/>
<path d="M134.9 22.0673C134.9 23.3973 134.52 24.5373 133.76 25.2973C133 26.2473 131.86 26.6273 130.53 26.6273C129.2 26.6273 128.25 26.2473 127.49 25.2973C126.73 24.5373 126.35 23.3973 126.35 22.0673C126.35 20.7373 126.73 19.5973 127.49 18.8373C128.25 17.8873 129.39 17.5073 130.72 17.5073C132.05 17.5073 133 17.8873 133.76 18.8373C134.52 19.5973 134.9 20.7373 134.9 22.0673ZM133 22.0673C133 21.3073 132.81 20.5473 132.43 19.9773C132.05 19.2173 131.48 19.0273 130.72 19.0273C129.96 19.0273 129.39 19.4073 129.01 19.9773C128.63 20.5473 128.44 21.3073 128.44 22.0673C128.44 22.8273 128.63 23.5873 129.01 24.1573C129.39 24.9173 129.96 25.1073 130.72 25.1073C131.48 25.1073 132.05 24.7273 132.43 23.9673C132.81 23.5873 133 22.8273 133 22.0673Z" fill="white"/>
<path d="M149.53 17.6973L146.87 26.4373H145.16L144.02 22.6373C143.64 21.6873 143.45 20.7373 143.26 19.7873C143.07 20.7373 142.88 21.6873 142.5 22.6373L141.36 26.4373H139.65L136.8 17.6973H138.7L139.65 21.8773C139.84 22.8273 140.03 23.7773 140.22 24.7273C140.41 23.9673 140.6 23.0173 140.98 21.8773L142.12 17.6973H143.64L144.78 21.6873C145.16 22.6373 145.35 23.5873 145.54 24.5373C145.73 23.5873 145.92 22.6373 146.11 21.6873L147.25 17.6973H149.53Z" fill="white"/>
<path d="M159.41 26.4374H157.51V21.4974C157.51 19.9774 156.94 19.2174 155.8 19.2174C155.23 19.2174 154.85 19.4074 154.47 19.7874C154.09 20.1674 153.9 20.7374 153.9 21.3074V26.4374H152V20.1674C152 19.4074 152 18.6474 152 17.6974H153.71V19.0274C153.9 18.6474 154.28 18.2674 154.66 17.8874C155.23 17.5074 155.8 17.3174 156.37 17.3174C157.13 17.3174 157.89 17.5074 158.46 18.0774C159.22 18.6474 159.41 19.5974 159.41 20.9274V26.4374Z" fill="white"/>
<path d="M164.73 26.4373H162.83V13.7073H164.73V26.4373Z" fill="white"/>
<path d="M176.13 22.0673C176.13 23.3973 175.75 24.5373 174.99 25.2973C174.23 26.2473 173.09 26.6273 171.76 26.6273C170.43 26.6273 169.48 26.2473 168.72 25.2973C167.96 24.5373 167.58 23.3973 167.58 22.0673C167.58 20.7373 167.96 19.5973 168.72 18.8373C169.48 18.0773 170.62 17.5073 171.95 17.5073C173.28 17.5073 174.23 17.8873 174.99 18.8373C175.75 19.5973 176.13 20.7373 176.13 22.0673ZM174.23 22.0673C174.23 21.3073 174.04 20.5473 173.66 19.9773C173.28 19.2173 172.71 19.0273 171.95 19.0273C171.19 19.0273 170.62 19.4073 170.24 19.9773C169.86 20.5473 169.67 21.3073 169.67 22.0673C169.67 22.8273 169.86 23.5873 170.24 24.1573C170.62 24.9173 171.19 25.1073 171.95 25.1073C172.71 25.1073 173.28 24.7273 173.66 23.9673C174.04 23.5873 174.23 22.8273 174.23 22.0673Z" fill="white"/>
<path d="M185.44 26.4373H183.73L183.54 25.4873C182.97 26.2473 182.02 26.6273 181.07 26.6273C180.31 26.6273 179.55 26.4373 179.17 25.8673C178.79 25.2973 178.41 24.7273 178.41 24.1573C178.41 23.0173 178.79 22.2573 179.74 21.6873C180.69 21.1173 181.83 20.9273 183.54 20.9273V20.7373C183.54 19.5973 182.97 19.0273 181.83 19.0273C180.88 19.0273 180.31 19.2173 179.55 19.5973L179.17 18.2673C179.93 17.6973 180.88 17.5073 182.21 17.5073C184.49 17.5073 185.63 18.6473 185.63 21.1173V24.3473C185.44 25.2973 185.44 25.8673 185.44 26.4373ZM183.54 23.3973V22.0673C181.45 22.0673 180.31 22.6373 180.31 23.7773C180.31 24.1573 180.5 24.5373 180.69 24.7273C180.88 24.9173 181.26 25.1073 181.64 25.1073C182.02 25.1073 182.4 24.9173 182.78 24.7273C183.16 24.5373 183.35 24.1573 183.54 23.7773C183.54 23.7773 183.54 23.5873 183.54 23.3973Z" fill="white"/>
<path d="M196.46 26.4372H194.75V25.1072C194.18 26.2472 193.23 26.6272 191.9 26.6272C190.76 26.6272 190 26.2472 189.24 25.4872C188.48 24.7272 188.29 23.5872 188.29 22.2572C188.29 20.9272 188.67 19.7872 189.43 18.8372C190.19 18.0772 191.14 17.6972 192.09 17.6972C193.23 17.6972 193.99 18.0772 194.56 18.8372V13.8972H196.46V24.1572C196.46 24.9172 196.46 25.6772 196.46 26.4372ZM194.56 22.8272V21.3072C194.56 21.1172 194.56 20.9272 194.56 20.7372C194.37 20.3572 194.18 19.9772 193.8 19.5972C193.42 19.2172 193.04 19.2172 192.47 19.2172C191.71 19.2172 191.14 19.5972 190.76 20.1672C190.38 20.7372 190.19 21.4972 190.19 22.4472C190.19 23.3972 190.38 23.9672 190.76 24.5372C191.14 25.1072 191.71 25.4872 192.47 25.4872C193.04 25.4872 193.61 25.2972 193.99 24.7272C194.37 23.9672 194.56 23.3972 194.56 22.8272Z" fill="white"/>
<path d="M212.99 22.0673C212.99 23.3973 212.61 24.5373 211.85 25.2973C211.09 26.2473 209.95 26.6273 208.62 26.6273C207.29 26.6273 206.34 26.2473 205.58 25.2973C204.82 24.5373 204.44 23.3973 204.44 22.0673C204.44 20.7373 204.82 19.5973 205.58 18.8373C206.34 17.8873 207.48 17.5073 208.81 17.5073C210.14 17.5073 211.09 17.8873 211.85 18.8373C212.61 19.5973 212.99 20.7373 212.99 22.0673ZM210.9 22.0673C210.9 21.3073 210.71 20.5473 210.33 19.9773C209.95 19.2173 209.38 19.0273 208.62 19.0273C207.86 19.0273 207.29 19.4073 206.91 19.9773C206.53 20.5473 206.34 21.3073 206.34 22.0673C206.34 22.8273 206.53 23.5873 206.91 24.1573C207.29 24.9173 207.86 25.1073 208.62 25.1073C209.38 25.1073 209.95 24.7273 210.33 23.9673C210.71 23.5873 210.9 22.8273 210.9 22.0673Z" fill="white"/>
<path d="M223.44 26.4374H221.54V21.4974C221.54 19.9774 220.97 19.2174 219.83 19.2174C219.26 19.2174 218.88 19.4074 218.5 19.7874C218.12 20.1674 217.93 20.7374 217.93 21.3074V26.4374H216.03V20.1674C216.03 19.4074 216.03 18.6474 216.03 17.6974H217.74V19.0274C217.93 18.6474 218.31 18.2674 218.69 17.8874C219.26 17.5074 219.83 17.3174 220.4 17.3174C221.16 17.3174 221.92 17.5074 222.49 18.0774C223.25 18.6474 223.44 19.5974 223.44 20.9274V26.4374Z" fill="white"/>
<path d="M236.36 19.2172H234.27V23.3972C234.27 24.5372 234.65 24.9172 235.41 24.9172C235.79 24.9172 235.98 24.9172 236.36 24.9172V26.4372C235.98 26.6272 235.41 26.6272 234.84 26.6272C234.08 26.6272 233.51 26.4372 233.13 25.8672C232.75 25.4872 232.56 24.5372 232.56 23.5872V19.2172H231.23V17.6972H232.56V16.1772L234.46 15.6072V17.6972H236.55V19.2172H236.36Z" fill="white"/>
<path d="M246.62 26.4373H244.72V21.4973C244.72 19.9773 244.15 19.2173 243.01 19.2173C242.06 19.2173 241.49 19.5973 241.11 20.5473C241.11 20.7373 241.11 20.9273 241.11 21.3073V26.4373H239.21V13.7073H241.11V19.0273C241.68 18.0773 242.63 17.5073 243.77 17.5073C244.53 17.5073 245.29 17.6973 245.67 18.2673C246.24 18.8373 246.62 19.9773 246.62 21.1173V26.4373Z" fill="white"/>
<path d="M257.07 21.6873C257.07 22.0673 257.07 22.2573 257.07 22.6373H251.37C251.37 23.5873 251.75 24.1573 252.13 24.5373C252.7 24.9173 253.27 25.1073 254.03 25.1073C254.98 25.1073 255.74 24.9173 256.31 24.7273L256.69 26.0573C255.93 26.4373 254.98 26.6273 253.84 26.6273C252.51 26.6273 251.37 26.2473 250.61 25.4873C249.85 24.7273 249.47 23.5873 249.47 22.2573C249.47 20.9273 249.85 19.7873 250.61 19.0273C251.37 18.0773 252.32 17.6973 253.65 17.6973C254.98 17.6973 255.93 18.0773 256.5 19.0273C256.88 19.5973 257.07 20.5473 257.07 21.6873ZM255.36 21.1173C255.36 20.5473 255.17 19.9773 254.98 19.5973C254.6 19.0273 254.22 18.8373 253.46 18.8373C252.89 18.8373 252.32 19.0273 251.94 19.5973C251.56 19.9773 251.37 20.5473 251.37 21.1173H255.36Z" fill="white"/>
</svg>
